<svg width="570" height="570" xmlns="http://www.w3.org/2000/svg" data-page-height="768" data-page-width="768" class="page showed">

 <g>
  <title>Layer 1</title>
  <g id="svg_1" class="content">
   <g id="svg_2" class="layers">
    <g id="svg_3" transform="matrix(0.83201 0 0 0.83201 355.829 10.5243)" data-layer-color="#007fff" data-layer-name="first layer" class="layer">
     <ellipse id="svg_4" cx="-85.13862" cy="329.80919" fill="#474747" ry="342.49997" rx="342.49999"/>
     <path id="svg_5" fill="#BDBEBE" d="m-94.13865,616.02319c-6,-0.68646 -8.5163,0.52844 -23,-1.93085c-9.53192,-1.61847 -15.10154,-2.2218 -24.52036,-4.28302c-10.48694,-2.29498 -20.75323,-5.63885 -31.04407,-8.76178c-2.73788,-0.83087 -5.50955,-2.79993 -4.20313,-6.16003c1.23221,-3.16919 3.76758,-4.33673 7.67191,-3.24976c11.93854,3.32361 23.92914,6.5755 36.06601,9.03308c8.99485,1.82141 18.22852,2.60211 27.39481,3.39655c7.91284,0.68567 15.91727,1.37738 23.81604,0.92596c13.4606,-0.76935 26.99744,-1.67957 40.26703,-3.92224c14.77231,-2.49664 29.49267,-5.83594 43.85657,-10.08868c21.98785,-6.50995 42.38513,-16.75555 61.60855,-29.29004c1.07721,-0.70233 2.57111,-1.68231 3.56189,-1.40973c2.05994,0.56683 4.43585,1.48553 5.6438,3.05743c0.6712,0.87354 -0.17529,4.14301 -1.32257,4.97552c-5.55731,4.03259 -11.18085,8.13165 -17.27722,11.23077c-12.50381,6.3562 -24.93454,13.21069 -38.11405,17.79291c-16.26666,5.65558 -33.20508,9.45135 -49.97497,13.55292c-6.97452,1.70587 -14.26974,2.08551 -21.40274,3.17535c-1.01764,0.15546 -7.0275,0.91815 -14.0275,1.70367c-4.99976,0.30396 -18.52112,0.99323 -25,0.25195z"/>
     <path id="svg_6" fill="#C3C3C3" d="m-71.13865,46.07519c3,0 19.06076,1.76214 19.79849,1.89742c13.23553,2.4269 26.49945,4.69898 39.73849,7.10741c2.20212,0.4006 4.28012,1.46599 6.47922,1.90458c3.37613,0.67335 4.74713,3.08116 3.58127,5.71436c-0.60211,1.35991 -3.9003,2.55965 -5.64902,2.2038c-8.69644,-1.76965 -17.21542,-4.43201 -25.92685,-6.10186c-8.62213,-1.65273 -17.36703,-2.92358 -26.11682,-3.58494c-10.54904,-0.79736 -21.1651,-1.15469 -31.74277,-1.01113c-12.59442,0.17091 -25.06622,1.62582 -37.57774,3.59491c-16.40945,2.58257 -32.37311,6.46451 -47.76993,12.39967c-12.17496,4.69322 -24.06522,10.21619 -35.77608,15.99083c-8.0782,3.98337 -15.51422,9.25562 -23.51028,13.42865c-1.94522,1.01517 -6.24715,0.92357 -7.19142,-0.34793c-1.43155,-1.92764 -0.8345,-4.73172 2.37424,-6.79419c16.33759,-10.50131 33.12192,-20.13303 51.53183,-26.44092c15.68372,-5.37379 31.51694,-10.39731 47.50983,-14.74516c7.63721,-2.07627 20.24754,-3.65887 20.24754,-3.65887c1.00003,-0.14481 5.00003,-0.43612 13,-1.20824c20.02399,-0.34838 16.17712,-0.34839 37,-0.34839zm267.48537,356.73347c-16.95361,2.51785 -31.72705,-1.65344 -44.97516,-11.53088c-13.50818,-10.07147 -21.10089,-23.67889 -23.46185,-39.76813c-1.49243,-10.16995 0.37609,-20.28091 4.64953,-29.89606c4.86957,-10.95624 12.67108,-19.57941 22.46722,-26.28033c7.01709,-4.7999 15.15454,-7.82782 23.78021,-8.92422c26.73065,-3.39771 46.92511,7.1106 61.11896,28.71265c5.1687,7.8663 7.82935,16.93628 7.99274,26.67157c0.17474,10.40854 -1.3241,20.28647 -6.3338,29.51801c-5.81281,10.71161 -13.98041,19.43326 -25.06232,24.8725c-6.1817,3.03409 -13.18744,4.46902 -20.17554,6.62491zm-478.524,-310.78754c23.19153,5.27831 37.38159,20.62753 43.95726,43.09779c4.10263,14.01941 2.64787,27.70378 -3.45126,40.49837c-8.49258,17.8154 -22.4753,29.66478 -42.28496,33.44246c-15.77927,3.00909 -31.04492,1.34579 -44.49005,-8.06668c-19.3739,-13.56305 -30.05429,-32.1812 -27.6377,-56.12807c2.36411,-23.42706 14.83218,-40.2818 36.83173,-49.96439c9.63223,-4.2394 17.82074,-4.82388 22.11365,-4.76891c7.99997,0.10246 11.99997,1.21542 14.96133,1.88942z"/>
     <path id="svg_7" fill="#DE1A22" d="m-407.35812,359.37445c6.41806,-22.16766 24.37784,-33.94855 42.98956,-34.34186c30.20328,-0.63831 51.84885,24.64832 46.98953,54.51108c-4.3324,26.62491 -32.81967,43.94003 -58.57785,35.80923c-17.20901,-5.43219 -27.93317,-17.06967 -31.73178,-34.32559c-1.48233,-6.73367 0.08719,-14.13919 0.33054,-21.65286z"/>
     <path id="svg_8" fill="#C2C2C2" d="m-154.01097,391.50317c6.13739,-7.67273 13.85101,-12.63849 22.87659,-14.83081c9.21601,-2.23859 18.19495,-0.18927 26.35111,4.66577c14.10294,8.39496 22.35776,25.51086 18.21524,41.38794c-4.50281,17.258 -22.21506,33.4895 -44.29508,28.47266c-16.35519,-3.71609 -26.20261,-14.02222 -29.92261,-29.66632c-2.48883,-10.46655 -0.00583,-20.78125 6.77475,-30.02924z"/>
     <path id="svg_9" fill="#DE1A22" d="m142.37901,540.92029c-6.04608,15.41711 -19.05169,24.0321 -35.29436,23.7041c-14.65051,-0.2959 -28.96771,-10.401 -33.30548,-24.81976c-3.9588,-13.15918 -1.74194,-25.83582 7.66846,-36.22c8.64825,-9.54306 19.59357,-13.25381 32.71338,-11.40482c20.80322,2.93192 34.66375,24.27551 30.06756,43.7663c-0.37317,1.58228 -1.16772,3.06525 -1.84955,4.97418zm-188.71981,-264.04895c15.09384,3.53781 30.09854,7.08752 45.54617,10.57739c16.45715,3.71799 33.31177,7.71405 50.78827,11.10483c14.55994,2.82483 29.55109,4.69394 44.7196,7.17447c1.82654,0.29886 4.06604,0.6889 5.30353,2.31073c2.2124,2.89954 3.82574,6.85632 5.73755,10.45923c-2.83228,2.55481 -5.86401,7.79559 -8.56323,7.33728c-26.41876,-4.48676 -52.00824,-9.06573 -76.45157,-14.72308c-30.27692,-7.00751 -59.21368,-13.70654 -85.79459,-22.02231c-22.0387,-6.89481 -42.65955,-14.29837 -60.1925,-23.77069c-22.83201,-12.33513 -42.5904,-25.03169 -59.55677,-37.65636c-15.27142,-11.36337 -27.19119,-23.43683 -39.08189,-33.79364c-1.32329,-1.15265 -0.76263,-3.1393 3.41457,-6.06825c4.92192,-3.45119 11.0762,-2.92368 12.33301,-1.90198c5.25858,4.27487 12.18695,9.05167 18.00003,13.53482c11.35931,8.76057 20.56168,18.6823 35.00006,27.56007c18.54559,11.40311 36.38093,22.53607 60.04496,33.78569c12.95938,6.16071 28.59146,9.34149 43.69894,14.1214c1.59097,0.50342 3.07755,1.2135 5.05386,1.9704z"/>
     <path id="svg_10" fill="#BDBEBD" d="m57.28307,444.70587c-3.82281,3.23737 -7.16455,6.62274 -11.10742,9.01907c-28.39514,17.25748 -57.543,33.22916 -88.10849,46.2355c-31.46329,13.38849 -63.45898,25.53235 -95.29444,38.03546c-8.94263,3.51221 -18.13702,6.38483 -27.22955,9.51105c-0.9191,0.31604 -2.11545,0.77393 -2.86752,0.44476c-2.04099,-0.89319 -5.56299,-2.25946 -5.5101,-3.28381c0.11316,-2.19037 1.62885,-5.51636 3.41559,-6.21515c11.20978,-4.38422 22.66394,-8.14038 34.01321,-12.17212c8.42277,-2.99213 16.90241,-5.85431 25.19239,-9.18359c17.86792,-7.17581 35.85944,-14.11053 53.37628,-22.07654c21.10678,-9.5986 41.9537,-19.81497 62.56894,-30.43213c14.21994,-7.32361 27.82456,-15.83649 41.76779,-23.7052c5.7428,-3.24097 7.44122,-2.53232 9.78333,3.82269z"/>
     <path id="svg_11" fill="#C1C1C1" d="m-39.06861,397.14075c14.09045,-2.77563 27.75674,-5.44727 41.38431,-8.30377c6.64478,-1.39288 13.22885,-3.08392 19.81973,-4.72318c9.08023,-2.25833 18.16956,-4.4888 27.20374,-6.9216c16.99072,-4.57544 33.9184,-9.38733 50.93384,-13.86688c3.91028,-1.02942 6.99438,1.36981 7.89337,4.96747c1.10956,4.43988 -2.90594,6.55466 -5.99603,7.59683c-10.0683,3.39569 -20.3136,6.30017 -30.57648,9.07681c-13.55988,3.66873 -27.14111,7.2948 -40.82129,10.47394c-19.06299,4.43011 -38.1962,8.57251 -57.35626,12.56494c-13.63248,2.84076 -27.35971,5.22632 -41.04239,7.82672c-2.92676,0.55624 -8.16931,-3.51837 -8.58136,-6.70508c-0.33267,-2.57251 4.69122,-6.4826 8.40454,-7.07117c9.45218,-1.49792 18.86539,-3.2417 28.73428,-4.91504z"/>
     <path id="svg_12" fill="#DE1A22" d="m47.90893,212.18501c0.39429,16.45544 0.57318,32.32874 1.27332,48.10704c0.33258,7.49475 1.70831,14.95697 2.50659,22.41522c0.45972,4.29535 -3.10571,8.30331 -7.52094,7.7901c-4.82797,-0.56119 -7.79773,-3.2178 -8.09982,-7.08871c-0.94781,-12.14478 -2.258,-24.33566 -2.63196,-36.57924c-0.67917,-22.24057 -1.15939,-44.6618 -0.9812,-67.25308c0.10858,-13.76381 1.61658,-27.6134 2.5567,-41.52959c0.06732,-0.99728 0.78748,-1.98309 0.85098,-2.9808c0.2515,-3.94867 3.80359,-5.8517 7.85336,-5.59137c4.31003,0.27708 7.26035,2.76056 7.06381,6.69357c-0.53802,10.76627 -1.09961,21.48981 -1.49377,32.17143c-0.53571,14.52379 -0.92615,28.97241 -1.37708,43.84543zm-151.01028,-47.28607c-20.26822,12.68419 -40.37199,25.22498 -60.64402,37.77838c-1.28607,0.79633 -2.86896,1.90576 -4.16971,1.27328c-1.80356,-0.87714 -4.97961,-3.88518 -4.92715,-4.91463c0.16888,-3.3125 0.93628,-7.56865 2.58389,-8.88966c5.91977,-4.74651 12.18616,-8.69173 18.47363,-12.4498c19.51038,-11.66162 38.81116,-23.48569 58.2826,-34.25554c18.46014,-10.21042 37.10608,-19.27888 55.48947,-28.68199c9.00043,-4.60367 17.99438,-9.09201 26.97134,-13.49706c1.9845,-0.97386 4.07635,-2.38898 6.13461,-1.9398c2.0162,0.43997 4.04993,2.98723 6.06961,4.60464c-1.08231,2.96802 -1.68076,7.64052 -3.32751,8.60403c-7.46436,4.36766 -15.31229,7.48103 -22.94791,11.46397c-23.06082,12.02928 -46.28217,24.36664 -69.74933,36.72156c-2.62286,1.38089 -5.29047,2.6252 -8.23953,4.1826z"/>
     <path id="svg_13" fill="#C1C1C2" d="m-161.3036,383.04248c-5.44299,1.81476 -8.00543,-2.62717 -10.23853,-5.14136c-9.04083,-10.17911 -17.98883,-20.55539 -25.81772,-31.67114c-14.00247,-19.88129 -27.18408,-40.34125 -40.6673,-60.58691c-1.25009,-1.87714 -2.10349,-4.01526 -3.31308,-5.92316c-2.58322,-4.07449 0.03664,-6.49609 2.77829,-8.7468c3.00774,-2.46924 5.09708,-0.11591 6.53377,2.00165c4.72794,6.96841 8.98639,14.25763 13.76871,21.18646c11.15834,16.16678 22.26265,32.38199 33.88365,48.21432c7.72324,10.52213 16.36987,20.36264 24.46655,30.61609c4.02637,5.09894 3.85516,5.51514 -1.39435,10.05084z"/>
     <path id="svg_14" fill="#BFBFBF" d="m-31.20136,227.12721c6.05411,-14.4408 12.17447,-28.44493 17.96524,-42.58405c7.94891,-19.40865 15.63467,-38.925 23.46793,-58.38123c1.24625,-3.09543 3.57742,-5.30508 6.8924,-3.73396c2.60785,1.23596 4.43124,3.28064 2.81424,7.22148c-8.57001,20.88623 -16.55414,42.01343 -25.16748,62.88121c-8.80466,21.33144 -18.09699,42.46169 -27.19577,63.67148c-0.64395,1.50104 -1.24326,3.095 -2.2312,4.35803c-1.59393,2.03778 -3.26456,4.14084 -6.50201,2.52283c-3.15048,-1.57458 -3.84763,-3.92862 -2.59109,-6.93195c2.94965,-7.05052 6.0105,-14.05467 9.05103,-21.06685c1.10245,-2.54254 2.2753,-5.05453 3.49673,-7.957z"/>
     <path id="svg_15" fill="#C3C3C3" d="m154.74474,181.97061c9.89795,15.80684 17.43835,32.54848 23.88684,49.86348c3.1394,8.42947 5.59387,17.16037 8.32452,25.7675c0.36462,1.14929 0.67322,2.36166 0.75659,3.56534c0.17566,2.53613 0.37512,5.81146 -2.80457,5.63495c-1.75061,-0.0972 -4.24042,-2.24072 -4.93274,-4.10321c-3.67847,-9.89693 -6.70422,-20.07777 -10.30725,-30.01018c-7.88898,-21.74722 -18.59265,-41.9162 -31.67224,-60.345c-9.62128,-13.55615 -20.5855,-26.02603 -31.36651,-38.55893c-5.29156,-6.15146 -11.58331,-11.27966 -17.30505,-17.00906c-2.07819,-2.08101 -3.9743,-4.66562 -1.74872,-7.8568c2.1532,-3.08733 4.35626,-2.1674 6.66846,0.20245c9.29175,9.52356 19.1488,18.4556 27.90277,28.52284c9.20489,10.58578 17.45763,22.15686 25.97405,33.43303c2.46051,3.25783 4.39587,6.98317 6.62384,10.89359z"/>
     <path id="svg_16" fill="#BEBEBF" d="m-205.5121,415.0502c-11.27983,-1.71915 -22.21216,-2.93027 -32.8988,-5.26556c-16.52368,-3.61099 -32.89348,-7.93488 -49.29622,-12.08408c-3.93127,-0.99451 -7.80185,-2.32254 -11.57837,-3.80734c-3.45279,-1.35754 -6.87726,-3.15836 -5.8457,-7.84286c0.60803,-2.76129 5.47488,-3.93448 9.58679,-2.54932c3.99283,1.34503 7.92532,2.92224 11.99207,3.98544c16.35999,4.27728 32.62778,9.06573 49.18777,12.37256c14.89516,2.97433 30.13261,4.22385 45.20818,6.31284c3.54202,0.49078 7.06226,1.20062 10.55148,1.99081c2.80975,0.63635 5.4827,2.26688 4.08286,5.38895c-0.8681,1.9361 -3.75406,4.3299 -5.60776,4.22748c-8.33298,-0.46014 -16.62067,-1.74023 -25.38229,-2.72891z"/>
     <path id="svg_17" fill="#DE1A22" d="m-276.98602,269.8045c20.22372,-16.2708 39.86162,-31.95772 59.15384,-47.34276c0.72044,-0.57446 1.38364,-1.48334 2.42502,-1.42776c2.53772,0.13535 5.30763,0.75272 8.01247,1.1803c0.69446,2.45404 2.81177,6.00134 1.83389,7.23865c-2.66309,3.36963 -6.75122,5.64697 -10.11699,8.52911c-23.45921,20.08821 -47.68091,40.5851 -72.18759,62.14259c-8.05991,7.09003 -15.2406,15.70013 -22.97733,23.76773c-0.50439,0.52606 -1.00458,1.06467 -1.55661,1.51599c-2.64587,2.16391 -5.57565,3.84088 -9.07498,-1.93997c-3.09302,-5.10962 -1.25955,-8.29611 0.77155,-10.59045c4.23584,-4.78448 8.64807,-9.24756 13.09494,-13.56976c10.24481,-9.95764 20.42453,-19.63501 30.6218,-29.50366z"/>
     <path id="svg_18" fill="#BDBEBD" d="m-294.08737,506.92969c2.91656,3.58984 5.67908,6.84662 8.27158,10.23358c1.81311,2.36871 2.1557,5.47766 -0.49155,6.84875c-1.77634,0.92004 -5.72488,0.59229 -6.90295,-0.75262c-8.24094,-9.40802 -16.36963,-18.96014 -23.85513,-28.97388c-12.60892,-16.8674 -21.96301,-35.62994 -30.28275,-54.90619c-1.31076,-3.03693 -3.5473,-6.23004 -0.18732,-9.52246c2.21375,-2.16928 4.4577,-2.48312 6.37048,0.00604c1.57178,2.04541 2.86545,4.38452 3.8815,6.76459c10.00916,23.44635 23.00674,45.12952 38.4335,65.38098c1.30136,1.70837 3.01428,3.10321 4.76263,4.9212z"/>
     <path id="svg_19" fill="#DF1A22" d="m87.81963,475.72903c-6.40277,-5.56732 -7.73273,-8.75565 -12.9223,-16.17331c0,0 -10.89465,-19.83911 -15.3526,-55.49393c-0.67731,-1.94888 -1.04822,-4.18198 -0.27576,-5.99106c0.57404,-1.3443 2.9726,-2.77707 5.0105,-3.19281c1.67865,-0.34253 4.9386,0.33807 5.93341,1.30096c2.16504,2.09567 2.45007,4.5325 2.64862,7.12128c1.10529,14.41187 2.96405,22.41187 11.82458,42.54959c5.5152,12.53464 8.49725,15.14755 13.58569,22.88614c3.74219,5.81567 2.90961,10.77029 0.19159,12.43744c-2.48895,1.52661 -7.53174,-2.52759 -10.64374,-5.44431z"/>
     <path id="svg_20" fill="#BFBFBF" d="m-61.33341,317.04797c-9.56805,17.94629 -19.12228,35.49268 -28.52841,53.1181c-1.62994,3.0542 -3.79712,5.17184 -6.9877,3.44806c-3.13821,-1.6955 -4.03952,-4.63135 -2.06577,-8.34363c11.32391,-21.29852 22.42844,-42.71362 33.72064,-64.02921c2.9982,-5.65955 6.45679,-6.72446 9.32498,-3.08786c0.9194,1.16571 1.47043,3.4635 0.96194,4.76282c-1.83795,4.69687 -4.19846,9.18915 -6.42569,14.13171z"/>
     <path id="svg_21" fill="#C3C3C3" d="m-366.00204,308.75519c0.07803,-6.5921 -0.32901,-12.98572 0.8588,-19.06787c2.88232,-14.75867 6.04453,-29.49829 9.99329,-44.00069c2.66025,-9.77014 6.84229,-19.12708 10.37943,-28.65558c0.33591,-0.90485 1.05716,-1.66885 1.37857,-2.57654c1.19122,-3.36395 4.00818,-4.50931 6.55325,-2.88214c1.24149,0.79376 1.5079,4.50681 0.91055,6.509c-1.51584,5.08041 -4.08328,9.84271 -5.66592,14.90845c-4.37363,13.9993 -8.98663,27.95937 -12.47287,42.18785c-2.31305,9.44037 -3.0184,19.29681 -4.11798,29.00391c-0.62775,5.54199 -2.31314,6.87201 -7.81711,4.57361z"/>
     <path id="svg_22" fill="#C1C1C1" d="m45.27981,502.34467c3.6835,1.38623 7.00302,2.59741 10.332,3.78223c4.47113,1.59125 7.91766,5.71167 6.93488,8.32007c-1.28729,3.4165 -7.36761,5.83185 -11.45313,4.31757c-13.4241,-4.97552 -26.82318,-10.01947 -40.19428,-15.1355c-1.77972,-0.68097 -3.71719,-1.60913 -4.90494,-3.00055c-1.30188,-1.52502 -3.04453,-4.51422 -2.43015,-5.4617c1.3916,-2.14627 3.97852,-4.49054 6.32922,-4.78943c2.78076,-0.35355 5.88309,1.19559 8.74329,2.20975c8.78748,3.11588 17.52585,6.3703 26.6431,9.75757z"/>
     <path id="svg_23" fill="#BFBFBF" d="m-194.55266,503.82617c11.32391,-15.62909 22.30103,-31.0506 33.61707,-46.21936c1.52695,-2.04681 4.86874,-4.09457 7.17477,-3.89413c3.63687,0.31613 4.67032,5.38724 2.11511,8.91586c-11.68015,16.12958 -23.38364,32.24353 -35.26459,48.22498c-1.80289,2.42517 -4.40567,4.80005 -7.94778,2.1012c-3.91284,-2.98126 -2.34384,-5.91217 0.30542,-9.12854z"/>
     <path id="svg_24" fill="#C1C1C1" d="m-46.29023,462.10126c2.05032,1.33685 4.34894,2.29559 5.2449,3.9942c0.94116,1.78424 1.40671,4.76514 0.51831,6.34479c-1.29916,2.30997 -3.32547,5.13358 -7.17007,2.81366c-9.53128,-5.75168 -19.2193,-11.24329 -28.76904,-16.96506c-2.62866,-1.57492 -5.07083,-3.4957 -7.45349,-5.43594c-2.00983,-1.63654 -3.63428,-3.57898 -1.34045,-6.22778c2.39182,-2.76205 4.90427,-5.47031 8.9577,-2.99451c7.99274,4.8819 15.91684,9.87628 23.86929,14.82428c1.92493,1.19769 3.84964,2.39563 6.14285,3.64636z"/>
     <path id="svg_25" fill="#C3C3C3" d="m161.9077,463.1825c-5.69391,8.64838 -10.9986,17.09735 -16.67743,25.1203c-1.05078,1.48453 -3.61292,1.24948 -5.4776,1.80811c-0.28894,-2.55872 -0.88428,-5.11829 -0.73523,-7.67581c0.07239,-1.24249 1.52356,-2.49649 2.37396,-3.71912c11.69275,-16.80991 22.83588,-34.14099 31.62042,-53.60931c1.85742,-4.1163 4.54913,-4.36948 6.76099,-2.77966c1.01239,0.72769 1.40771,5.30844 0.5639,6.95236c-5.83197,11.36121 -12.06464,22.40863 -18.42902,33.90314z"/>
     <path id="svg_26" fill="#DE1A22" d="m42.1108,329.72858c0.57339,-4.65823 4.17877,-6.82364 7.54977,-6.57303c2.59406,0.19284 5.55951,1.92041 6.0705,3.95981c2.00598,8.00555 3.13715,16.42145 4.58417,24.66119c0.36792,2.09515 0.73932,4.18759 1.07782,6.29636c0.60925,3.79544 -2.06683,7.6528 -5.96796,9.36465c-2.46228,1.08051 -6.74762,0.17432 -7.16101,-1.68909c-2.55991,-11.5401 -4.22156,-23.59525 -6.15329,-36.0199z"/>
     <path id="svg_27" fill="#BDBEBD" d="m113.48425,396.81613c2.90417,-2.82669 5.10382,-1.68326 7.01227,0.63644c2.02789,2.46478 1.81061,4.97485 -0.72491,6.87375c-6.0199,4.50833 -12.15643,8.86108 -18.2511,13.2695c-1.58618,1.1474 -3.08209,2.96649 -4.81372,3.23804c-2.60437,0.40839 -6.2533,0.72086 -7.88977,-0.71423c-2.86798,-2.51514 -0.67303,-5.4975 1.86279,-7.37909c6.17566,-4.58246 12.47247,-9.00238 18.74884,-13.44772c1.18762,-0.84116 2.50616,-1.49747 4.0556,-2.47668z"/>
     <path id="svg_28" fill="#C0C0C1" d="m-265.54382,234.33965c-1.73672,-3.35602 -3.08844,-6.49966 -4.78119,-9.44742c-2.12735,-3.70456 -0.60489,-6.2272 2.28638,-8.43008c3.21597,-2.45023 5.78662,-0.5726 7.35797,1.91354c2.75766,4.36313 5.22925,8.97324 7.21992,13.73123c1.28252,3.06549 -0.87001,5.75534 -3.60475,6.6929c-3.70917,1.27161 -6.75427,-0.27188 -8.47833,-4.46017z"/>
     <ellipse id="svg_29" cx="44.86138" cy="79.8082" fill="#DE1A22" ry="45" rx="45"/>
     <circle id="svg_30" cx="-232.73362" cy="562.10619" r="53.40034" fill="#C2C3C2"/>
    </g>
   </g>
  </g>
 </g>
</svg>